G75*
%MOIN*%
%OFA0B0*%
%FSLAX24Y24*%
%IPPOS*%
%LPD*%
%AMOC8*
5,1,8,0,0,1.08239X$1,22.5*
%
%ADD10C,0.0020*%
%ADD11C,0.0080*%
%ADD12C,0.0050*%
D10*
X002282Y002355D02*
X002334Y002615D01*
X002255Y002641D02*
X002255Y002693D01*
X002203Y002745D01*
X002151Y002745D01*
X002151Y002538D01*
X002099Y002538D01*
X002048Y002589D01*
X002048Y002641D01*
X002151Y002745D01*
X002047Y002746D02*
X002047Y002901D01*
X001891Y002746D01*
X001813Y002824D02*
X001969Y002980D01*
X001891Y002902D02*
X001787Y003006D01*
X001865Y003084D02*
X001709Y002928D01*
X001943Y002850D02*
X002047Y002746D01*
X002151Y002538D02*
X002255Y002641D01*
X002178Y002459D02*
X002437Y002511D01*
X002464Y002433D02*
X002464Y002225D01*
X002412Y002225D01*
X002360Y002277D01*
X002360Y002329D01*
X002464Y002433D01*
X002516Y002433D01*
X002568Y002381D01*
X002568Y002329D01*
X002464Y002225D01*
X002568Y002224D02*
X002672Y002121D01*
X002647Y001990D02*
X002750Y001887D01*
X002698Y001938D02*
X002854Y002094D01*
X002854Y001990D01*
X003089Y002106D02*
X003221Y001973D01*
X003155Y002040D02*
X003353Y002238D01*
X003353Y002106D01*
X003125Y002268D02*
X002993Y002400D01*
X002996Y002529D02*
X002996Y002595D01*
X002930Y002661D01*
X002864Y002661D01*
X002864Y002397D01*
X002798Y002397D01*
X002732Y002463D01*
X002732Y002529D01*
X002864Y002661D01*
X002834Y002758D02*
X002503Y002692D01*
X002473Y002788D02*
X002473Y003052D01*
X002341Y002920D01*
X002341Y002854D01*
X002407Y002788D01*
X002473Y002788D01*
X002605Y002920D01*
X002605Y002986D01*
X002539Y003052D01*
X002473Y003052D01*
X002443Y003148D02*
X002344Y003049D01*
X002311Y003148D01*
X002278Y003181D01*
X002212Y003181D01*
X002146Y003115D01*
X002146Y003049D01*
X002212Y002983D01*
X002278Y002983D01*
X002443Y003148D02*
X002311Y003280D01*
X002248Y003344D02*
X002049Y003145D01*
X002148Y003245D02*
X002016Y003377D01*
X002115Y003476D02*
X001917Y003278D01*
X001536Y003757D02*
X001460Y003928D01*
X001498Y003842D02*
X001754Y003956D01*
X001706Y003833D01*
X001551Y004067D02*
X001475Y004237D01*
X001354Y004281D02*
X001524Y004357D01*
X001548Y004419D01*
X001510Y004504D01*
X001448Y004528D01*
X001354Y004281D01*
X001292Y004305D01*
X001254Y004390D01*
X001278Y004452D01*
X001448Y004528D01*
X001455Y004628D02*
X001123Y004685D01*
X001129Y004786D02*
X001067Y004809D01*
X001029Y004895D01*
X001053Y004956D01*
X001224Y005032D01*
X001285Y005009D01*
X001323Y004923D01*
X001300Y004862D01*
X001129Y004786D01*
X000986Y004660D02*
X000844Y004436D01*
X000908Y004383D02*
X000889Y004335D01*
X000919Y004268D01*
X000967Y004249D01*
X001042Y004443D01*
X000908Y004383D01*
X000967Y004249D02*
X001102Y004309D01*
X001120Y004357D01*
X001090Y004424D01*
X001042Y004443D01*
X001045Y004526D02*
X000784Y004570D01*
X000788Y004653D02*
X000862Y004847D01*
X000728Y004787D01*
X000709Y004739D01*
X000739Y004672D01*
X000788Y004653D01*
X000922Y004713D01*
X000940Y004761D01*
X000911Y004828D01*
X000862Y004847D01*
X000832Y004915D02*
X000698Y004855D01*
X000649Y004873D01*
X000620Y004941D01*
X000638Y004989D01*
X000574Y005042D02*
X000776Y005131D01*
X000772Y005049D02*
X000821Y005030D01*
X000851Y004963D01*
X000832Y004915D01*
X000974Y005019D02*
X000917Y005147D01*
X000941Y005209D01*
X001111Y005285D01*
X001173Y005261D01*
X001230Y005133D01*
X000974Y005019D01*
X000862Y005271D02*
X001118Y005385D01*
X000990Y005328D02*
X000914Y005499D01*
X001042Y005556D02*
X000786Y005442D01*
X000716Y005265D02*
X000515Y005176D01*
X000615Y005221D02*
X000675Y005087D01*
X001379Y004799D02*
X001199Y004514D01*
X001065Y004211D02*
X001124Y004077D01*
X001054Y003965D02*
X001114Y003831D01*
X001084Y003898D02*
X001285Y003987D01*
X001248Y003890D01*
X002701Y002890D02*
X002635Y002559D01*
X002864Y002397D02*
X002996Y002529D01*
X003749Y001970D02*
X003631Y001716D01*
X003690Y001843D02*
X003860Y001764D01*
X003921Y001684D02*
X003901Y001642D01*
X003924Y001580D01*
X004051Y001521D01*
X004169Y001775D01*
X004042Y001834D01*
X003980Y001811D01*
X003960Y001769D01*
X003983Y001707D01*
X004110Y001648D01*
X004230Y001694D02*
X004151Y001525D01*
X004174Y001463D01*
X004259Y001424D01*
X004321Y001446D01*
X004230Y001694D01*
X004293Y001717D01*
X004377Y001678D01*
X004400Y001615D01*
X004321Y001446D01*
X004382Y001366D02*
X004670Y001541D01*
X004731Y001461D02*
X004822Y001213D01*
X004759Y001190D01*
X004675Y001230D01*
X004652Y001292D01*
X004731Y001461D01*
X004793Y001484D01*
X004878Y001444D01*
X004900Y001382D01*
X004822Y001213D01*
X004942Y001260D02*
X005111Y001181D01*
X005133Y001016D02*
X005302Y000937D01*
X005218Y000976D02*
X005336Y001230D01*
X005381Y001106D01*
X004985Y000856D02*
X005020Y000759D01*
X004985Y000856D02*
X004892Y000657D01*
X004958Y000626D02*
X004825Y000688D01*
X004804Y000819D02*
X004671Y000881D01*
X004573Y000846D02*
X004524Y000828D01*
X004458Y000859D01*
X004440Y000908D01*
X004502Y001041D01*
X004573Y000846D01*
X004635Y000979D01*
X004617Y001028D01*
X004551Y001059D01*
X004502Y001041D01*
X004450Y001106D02*
X004224Y000968D01*
X004173Y001033D02*
X004102Y001228D01*
X004039Y001095D01*
X004057Y001046D01*
X004124Y001015D01*
X004173Y001033D01*
X004235Y001166D01*
X004217Y001215D01*
X004150Y001246D01*
X004102Y001228D01*
X004019Y001226D02*
X003957Y001093D01*
X004003Y001193D02*
X003870Y001255D01*
X003886Y001288D02*
X003824Y001155D01*
X003756Y001186D02*
X003850Y001386D01*
X003886Y001288D02*
X003983Y001323D01*
X004019Y001226D01*
X003803Y001286D02*
X003670Y001348D01*
X003716Y001448D02*
X003623Y001248D01*
X003800Y001637D02*
X003919Y001891D01*
X003983Y001707D02*
X003921Y001684D01*
X004501Y001620D02*
X004551Y001287D01*
X004317Y001168D02*
X004357Y000906D01*
X008611Y001184D02*
X008730Y000930D01*
X008671Y001057D02*
X008840Y001136D01*
X008899Y001009D02*
X008781Y001263D01*
X008946Y001340D02*
X009065Y001086D01*
X009149Y001125D02*
X008980Y001046D01*
X009053Y000895D02*
X009146Y000696D01*
X009100Y000796D02*
X009233Y000858D01*
X009269Y000956D02*
X009464Y000885D01*
X009447Y000836D01*
X009380Y000805D01*
X009331Y000822D01*
X009269Y000956D01*
X009287Y001004D01*
X009353Y001035D01*
X009402Y001018D01*
X009464Y000885D01*
X009547Y000883D02*
X009680Y000945D01*
X009614Y000914D02*
X009520Y001113D01*
X009618Y001078D01*
X009654Y001176D02*
X009880Y001038D01*
X009932Y001103D02*
X009870Y001236D01*
X010065Y001165D01*
X010047Y001116D01*
X009981Y001085D01*
X009932Y001103D01*
X009870Y001236D02*
X009888Y001284D01*
X009954Y001315D01*
X010003Y001298D01*
X010065Y001165D01*
X010101Y001263D02*
X010234Y001325D01*
X010286Y001389D02*
X010271Y001422D01*
X010288Y001471D01*
X010355Y001502D01*
X010404Y001485D01*
X010286Y001389D02*
X010481Y001318D01*
X010348Y001256D01*
X010232Y001630D02*
X010401Y001709D01*
X010153Y001800D01*
X010133Y001842D01*
X010156Y001904D01*
X010240Y001943D01*
X010303Y001921D01*
X010092Y001719D02*
X009922Y001640D01*
X009881Y001518D02*
X009633Y001608D01*
X009711Y001439D01*
X009774Y001416D01*
X009858Y001456D01*
X009881Y001518D01*
X009802Y001687D01*
X009740Y001710D01*
X009655Y001670D01*
X009633Y001608D01*
X009532Y001613D02*
X009481Y001280D01*
X009400Y001242D02*
X009231Y001163D01*
X009315Y001203D02*
X009197Y001457D01*
X009321Y001411D01*
X009362Y001534D02*
X009650Y001359D01*
X009787Y001238D02*
X009747Y000976D01*
X009280Y000758D02*
X009186Y000957D01*
X009071Y001295D02*
X008946Y001340D01*
X010705Y002285D02*
X010906Y002091D01*
X010806Y002188D02*
X010935Y002322D01*
X010998Y002387D02*
X011095Y002487D01*
X011094Y002553D01*
X011060Y002586D01*
X010994Y002585D01*
X010929Y002518D01*
X010930Y002452D01*
X011065Y002322D01*
X011131Y002323D01*
X011196Y002390D01*
X011195Y002456D01*
X011257Y002520D02*
X011122Y002650D01*
X011386Y002655D01*
X011388Y002589D01*
X011323Y002522D01*
X011257Y002520D01*
X011386Y002655D02*
X011252Y002785D01*
X011186Y002783D01*
X011121Y002716D01*
X011122Y002650D01*
X011281Y002881D02*
X011612Y002821D01*
X011640Y002918D02*
X011706Y002919D01*
X011771Y002986D01*
X011770Y003052D01*
X011506Y003048D01*
X011640Y002918D01*
X011506Y003048D02*
X011505Y003114D01*
X011570Y003181D01*
X011636Y003182D01*
X011770Y003052D01*
X011765Y003181D02*
X011895Y003316D01*
X011923Y003413D02*
X011890Y003445D01*
X011889Y003511D01*
X011954Y003578D01*
X012020Y003579D01*
X011923Y003413D02*
X012188Y003417D01*
X012058Y003283D01*
X012172Y003196D02*
X012122Y003142D01*
X012124Y003091D01*
X012151Y003065D01*
X012358Y003073D01*
X012258Y002965D01*
X012127Y002986D02*
X012027Y002879D01*
X012030Y002775D02*
X011923Y002875D01*
X011871Y002873D01*
X011821Y002819D01*
X011823Y002767D01*
X012030Y002775D01*
X012032Y002723D01*
X011982Y002669D01*
X011930Y002667D01*
X011823Y002767D01*
X011745Y002738D02*
X011806Y002481D01*
X011729Y002451D02*
X011621Y002551D01*
X011569Y002550D01*
X011519Y002496D01*
X011521Y002444D01*
X011729Y002451D01*
X011730Y002399D01*
X011680Y002346D01*
X011629Y002344D01*
X011521Y002444D01*
X011471Y002390D02*
X011497Y002365D01*
X011499Y002313D01*
X011449Y002259D01*
X011451Y002207D01*
X011478Y002182D01*
X011530Y002184D01*
X011580Y002238D01*
X011578Y002290D01*
X011551Y002315D01*
X011499Y002313D01*
X011449Y002259D02*
X011397Y002257D01*
X011370Y002282D01*
X011369Y002334D01*
X011419Y002388D01*
X011471Y002390D01*
X011645Y002631D02*
X011906Y002588D01*
X011482Y002687D02*
X011410Y003016D01*
X010835Y002420D02*
X011036Y002225D01*
X011193Y002146D02*
X011354Y001996D01*
X011273Y002071D02*
X011374Y002178D01*
X011454Y002103D02*
X011293Y002253D01*
X012172Y003196D02*
X012224Y003198D01*
X012442Y003818D02*
X012179Y003914D01*
X012311Y003866D02*
X012374Y004041D01*
X012243Y004089D02*
X012506Y003993D01*
X012688Y003971D02*
X012896Y003899D01*
X012792Y003935D02*
X012840Y004074D01*
X012736Y004109D02*
X012944Y004038D01*
X012968Y004108D02*
X013016Y004247D01*
X012808Y004318D01*
X012760Y004180D01*
X012888Y004213D02*
X012912Y004283D01*
X013005Y004329D02*
X012866Y004377D01*
X013053Y004468D01*
X013076Y004421D01*
X013052Y004352D01*
X013005Y004329D01*
X012866Y004377D02*
X012844Y004423D01*
X012868Y004493D01*
X012914Y004515D01*
X013053Y004468D01*
X013112Y004526D02*
X012951Y004736D01*
X013010Y004794D02*
X012988Y004841D01*
X013011Y004911D01*
X013058Y004933D01*
X013197Y004885D01*
X013010Y004794D01*
X013149Y004747D01*
X013196Y004769D01*
X013220Y004839D01*
X013197Y004885D01*
X013152Y004980D02*
X013199Y005118D01*
X013189Y005200D02*
X013154Y005212D01*
X013131Y005259D01*
X013155Y005328D01*
X013202Y005351D01*
X013189Y005200D02*
X013375Y005291D01*
X013328Y005153D01*
X013009Y005375D02*
X013073Y005551D01*
X012833Y005439D01*
X012790Y005455D01*
X012762Y005515D01*
X012794Y005603D01*
X012854Y005631D01*
X012847Y005339D02*
X012783Y005164D01*
X012665Y005112D02*
X012840Y005048D01*
X012601Y004936D01*
X012776Y004872D01*
X012836Y004900D01*
X012868Y004988D01*
X012840Y005048D01*
X012665Y005112D02*
X012605Y005084D01*
X012573Y004996D01*
X012601Y004936D01*
X012526Y004868D02*
X012726Y004597D01*
X012651Y004529D02*
X012679Y004469D01*
X012647Y004381D01*
X012587Y004353D01*
X012412Y004417D01*
X012651Y004529D01*
X012476Y004592D01*
X012416Y004565D01*
X012384Y004477D01*
X012412Y004417D01*
X012337Y004349D02*
X012273Y004173D01*
X012437Y004213D02*
X012469Y004301D01*
X012601Y004253D02*
X012337Y004349D01*
X012462Y004692D02*
X012790Y004772D01*
X012904Y004597D02*
X013160Y004665D01*
X013118Y006229D02*
X013121Y006416D01*
X013030Y006507D02*
X012984Y006554D01*
X012986Y006694D01*
X013266Y006689D01*
X013264Y006549D01*
X013216Y006503D01*
X013030Y006507D01*
X012981Y006418D02*
X013262Y006413D01*
X013419Y006405D02*
X013639Y006401D01*
X013529Y006403D02*
X013531Y006550D01*
X013459Y006625D02*
X013423Y006663D01*
X013425Y006736D01*
X013462Y006772D01*
X013609Y006769D01*
X013645Y006732D01*
X013643Y006659D01*
X013606Y006623D01*
X013642Y006548D02*
X013421Y006552D01*
X013463Y006846D02*
X013613Y006990D01*
X013649Y006953D01*
X013647Y006880D01*
X013610Y006844D01*
X013463Y006846D01*
X013427Y006884D01*
X013428Y006957D01*
X013466Y006993D01*
X013613Y006990D01*
X013651Y007064D02*
X013433Y007215D01*
X013471Y007288D02*
X013620Y007432D01*
X013656Y007395D01*
X013655Y007322D01*
X013618Y007286D01*
X013471Y007288D01*
X013435Y007325D01*
X013436Y007399D01*
X013473Y007435D01*
X013620Y007432D01*
X013548Y007508D02*
X013551Y007655D01*
X013515Y007729D02*
X013479Y007730D01*
X013443Y007767D01*
X013444Y007841D01*
X013481Y007877D01*
X013515Y007729D02*
X013665Y007874D01*
X013662Y007727D01*
X013287Y007883D02*
X013290Y008070D01*
X013100Y007887D01*
X013054Y007888D01*
X013008Y007935D01*
X013009Y008028D01*
X013057Y008074D01*
X013146Y007797D02*
X013142Y007610D01*
X013047Y007522D02*
X013000Y007476D01*
X012998Y007383D01*
X013044Y007335D01*
X013234Y007519D01*
X013280Y007471D01*
X013278Y007378D01*
X013231Y007332D01*
X013044Y007335D01*
X012996Y007247D02*
X013273Y007055D01*
X013224Y006966D02*
X013038Y006970D01*
X012990Y006924D01*
X012989Y006830D01*
X013034Y006783D01*
X013224Y006966D01*
X013270Y006919D01*
X013269Y006825D01*
X013221Y006780D01*
X013034Y006783D01*
X012993Y007060D02*
X013276Y007242D01*
X013430Y007068D02*
X013653Y007211D01*
X013234Y007519D02*
X013047Y007522D01*
X012839Y008314D02*
X012951Y008553D01*
X012995Y008569D01*
X013054Y008541D01*
X013086Y008453D01*
X013058Y008394D01*
X013197Y008598D02*
X013285Y008786D01*
X013320Y008799D01*
X013367Y008777D01*
X013392Y008708D01*
X013370Y008661D01*
X013197Y008598D02*
X013147Y008736D01*
X013225Y008843D02*
X013175Y008981D01*
X013081Y009026D02*
X013219Y009076D01*
X013241Y009123D01*
X013215Y009192D01*
X013168Y009214D01*
X013081Y009026D01*
X013034Y009048D01*
X013008Y009117D01*
X013030Y009164D01*
X013168Y009214D01*
X013177Y009296D02*
X012920Y009359D01*
X012929Y009441D02*
X013017Y009629D01*
X012879Y009579D01*
X012857Y009532D01*
X012882Y009463D01*
X012929Y009441D01*
X013067Y009491D01*
X013089Y009538D01*
X013064Y009607D01*
X013017Y009629D01*
X012923Y009674D02*
X012885Y009777D01*
X012838Y009799D01*
X012804Y009787D01*
X012782Y009740D01*
X012807Y009671D01*
X012854Y009649D01*
X012923Y009674D01*
X012967Y009768D01*
X012976Y009849D01*
X012951Y009919D02*
X012744Y009844D01*
X012847Y009881D02*
X012797Y010019D01*
X012694Y009982D02*
X012901Y010057D01*
X012566Y009883D02*
X012630Y009707D01*
X012617Y009607D02*
X012505Y009368D01*
X012445Y009396D01*
X012413Y009484D01*
X012441Y009544D01*
X012617Y009607D01*
X012677Y009580D01*
X012708Y009492D01*
X012681Y009432D01*
X012505Y009368D01*
X012492Y009268D02*
X012819Y009188D01*
X012806Y009088D02*
X012694Y008849D01*
X012634Y008877D01*
X012602Y008965D01*
X012630Y009024D01*
X012806Y009088D01*
X012866Y009060D01*
X012897Y008973D01*
X012870Y008913D01*
X012694Y008849D01*
X012812Y008797D02*
X012876Y008621D01*
X012775Y008489D02*
X012839Y008314D01*
X012556Y009092D02*
X012755Y009364D01*
X012971Y009221D02*
X013127Y009434D01*
X012566Y009883D02*
X012522Y009867D01*
X012411Y009628D01*
X012367Y009612D01*
X012272Y009871D02*
X012536Y009967D01*
X012404Y009919D02*
X012340Y010095D01*
X012472Y010143D02*
X012208Y010047D01*
X011986Y010476D02*
X011977Y010740D01*
X012009Y010774D01*
X012075Y010776D01*
X012143Y010713D01*
X012146Y010647D01*
X011986Y010476D02*
X011850Y010603D01*
X011880Y010767D02*
X011743Y010894D01*
X011614Y010887D02*
X011605Y011151D01*
X011478Y011014D01*
X011480Y010948D01*
X011548Y010884D01*
X011614Y010887D01*
X011742Y011023D01*
X011739Y011089D01*
X011671Y011153D01*
X011605Y011151D01*
X011571Y011246D02*
X011244Y011168D01*
X011210Y011263D02*
X011144Y011261D01*
X011076Y011325D01*
X011074Y011391D01*
X011201Y011528D01*
X011210Y011263D01*
X011338Y011400D01*
X011335Y011466D01*
X011267Y011530D01*
X011201Y011528D01*
X011167Y011623D02*
X011065Y011718D01*
X010999Y011716D01*
X010967Y011682D01*
X010969Y011616D01*
X011072Y011520D01*
X010976Y011418D02*
X010874Y011513D01*
X010872Y011579D01*
X010903Y011613D01*
X010969Y011616D01*
X010870Y011709D02*
X010733Y011836D01*
X010638Y011734D02*
X010829Y011938D01*
X010965Y011811D02*
X010774Y011606D01*
X010976Y011418D02*
X011167Y011623D01*
X011235Y011864D02*
X011335Y011971D01*
X011439Y011975D01*
X011443Y011871D01*
X011343Y011764D01*
X011422Y011740D02*
X011424Y011688D01*
X011477Y011638D01*
X011529Y011640D01*
X011522Y011848D01*
X011422Y011740D01*
X011418Y011844D02*
X011310Y011945D01*
X011256Y011995D02*
X011149Y012095D01*
X011074Y012015D02*
X011224Y012176D01*
X011331Y012076D02*
X011181Y011915D01*
X011522Y011848D02*
X011574Y011849D01*
X011627Y011799D01*
X011629Y011747D01*
X011529Y011640D01*
X011558Y011563D02*
X011816Y011624D01*
X011845Y011546D02*
X011852Y011339D01*
X011801Y011337D01*
X011747Y011387D01*
X011745Y011439D01*
X011845Y011546D01*
X011897Y011548D01*
X011951Y011498D01*
X011953Y011446D01*
X011852Y011339D01*
X011957Y011342D02*
X012064Y011242D01*
X012143Y011218D02*
X012168Y011245D01*
X012220Y011246D01*
X012274Y011196D01*
X012276Y011145D01*
X012143Y011218D02*
X012151Y011010D01*
X012043Y011110D01*
X011666Y011463D02*
X011709Y011724D01*
X011435Y011373D02*
X011380Y011041D01*
X010373Y011982D02*
X010283Y012230D01*
X010303Y012272D01*
X010365Y012295D01*
X010449Y012255D01*
X010472Y012193D01*
X010373Y011982D02*
X010204Y012061D01*
X010182Y012225D02*
X010013Y012304D01*
X009892Y012258D02*
X009971Y012427D01*
X009949Y012489D01*
X009864Y012528D01*
X009802Y012506D01*
X009892Y012258D01*
X009830Y012235D01*
X009746Y012274D01*
X009723Y012337D01*
X009802Y012506D01*
X009741Y012586D02*
X009453Y012411D01*
X009392Y012491D02*
X009330Y012468D01*
X009245Y012508D01*
X009222Y012570D01*
X009301Y012739D01*
X009392Y012491D01*
X009471Y012660D01*
X009448Y012722D01*
X009363Y012762D01*
X009301Y012739D01*
X009240Y012819D02*
X009181Y012692D01*
X009116Y012774D01*
X009074Y012794D01*
X009012Y012771D01*
X008972Y012687D01*
X008995Y012625D01*
X009079Y012585D01*
X009141Y012608D01*
X009240Y012819D02*
X009071Y012898D01*
X008990Y012936D02*
X008871Y012682D01*
X008930Y012809D02*
X008761Y012888D01*
X008820Y013015D02*
X008702Y012761D01*
X008999Y013133D02*
X009092Y013332D01*
X009045Y013233D02*
X009178Y013171D01*
X009246Y013139D02*
X009379Y013077D01*
X009325Y013224D01*
X009232Y013024D01*
X009132Y013071D02*
X009225Y013270D01*
X009477Y013112D02*
X009415Y012979D01*
X009433Y012931D01*
X009499Y012900D01*
X009548Y012917D01*
X009477Y013112D01*
X009526Y013130D01*
X009592Y013099D01*
X009610Y013050D01*
X009548Y012917D01*
X009600Y012853D02*
X009826Y012990D01*
X009877Y012926D02*
X009948Y012731D01*
X009900Y012713D01*
X009833Y012744D01*
X009815Y012793D01*
X009877Y012926D01*
X009926Y012943D01*
X009993Y012912D01*
X010010Y012864D01*
X009948Y012731D01*
X010047Y012766D02*
X010180Y012704D01*
X010263Y012706D02*
X010334Y012511D01*
X010200Y012573D01*
X010263Y012706D02*
X010278Y012739D01*
X010327Y012757D01*
X010393Y012726D01*
X010411Y012677D01*
X009733Y012791D02*
X009693Y013052D01*
X009571Y012665D02*
X009622Y012332D01*
X008123Y012988D02*
X007936Y013175D01*
X007936Y013221D01*
X007983Y013268D01*
X008076Y013268D01*
X008123Y013221D01*
X008123Y012988D02*
X007936Y012988D01*
X007847Y013128D02*
X007660Y013128D01*
X007570Y013035D02*
X007384Y013221D01*
X007384Y013035D01*
X007430Y012988D01*
X007524Y012988D01*
X007570Y013035D01*
X007570Y013221D01*
X007524Y013268D01*
X007430Y013268D01*
X007384Y013221D01*
X007294Y013268D02*
X007107Y012988D01*
X007018Y013035D02*
X006831Y013221D01*
X006831Y013035D01*
X006878Y012988D01*
X006971Y012988D01*
X007018Y013035D01*
X007018Y013221D01*
X006971Y013268D01*
X006878Y013268D01*
X006831Y013221D01*
X006742Y013221D02*
X006695Y013268D01*
X006602Y013268D01*
X006555Y013221D01*
X006555Y013175D01*
X006602Y013128D01*
X006555Y013081D01*
X006555Y013035D01*
X006602Y012988D01*
X006695Y012988D01*
X006742Y013035D01*
X006648Y013128D02*
X006602Y013128D01*
X006465Y013128D02*
X006279Y013128D01*
X006279Y013268D02*
X006279Y012988D01*
X006465Y012988D02*
X006465Y013268D01*
X006525Y013418D02*
X006378Y013418D01*
X006304Y013418D02*
X006304Y013638D01*
X006378Y013601D02*
X006415Y013638D01*
X006489Y013638D01*
X006525Y013601D01*
X006599Y013601D02*
X006599Y013455D01*
X006636Y013418D01*
X006710Y013418D01*
X006746Y013455D01*
X006599Y013601D01*
X006636Y013638D01*
X006710Y013638D01*
X006746Y013601D01*
X006746Y013455D01*
X006820Y013418D02*
X006967Y013638D01*
X007041Y013601D02*
X007041Y013455D01*
X007078Y013418D01*
X007151Y013418D01*
X007188Y013455D01*
X007041Y013601D01*
X007078Y013638D01*
X007151Y013638D01*
X007188Y013601D01*
X007188Y013455D01*
X007262Y013528D02*
X007409Y013528D01*
X007483Y013565D02*
X007483Y013601D01*
X007520Y013638D01*
X007593Y013638D01*
X007630Y013601D01*
X007483Y013565D02*
X007630Y013418D01*
X007483Y013418D01*
X007107Y013268D02*
X007294Y012988D01*
X006967Y013418D02*
X006820Y013638D01*
X006525Y013418D02*
X006378Y013565D01*
X006378Y013601D01*
X006304Y013528D02*
X006157Y013528D01*
X006157Y013638D02*
X006157Y013418D01*
X005622Y012910D02*
X005452Y012831D01*
X005537Y012870D02*
X005418Y013124D01*
X005543Y013079D01*
X005312Y012920D02*
X005143Y012841D01*
X005101Y012718D02*
X005022Y012888D01*
X004960Y012910D01*
X004875Y012871D01*
X004853Y012809D01*
X005101Y012718D01*
X005078Y012656D01*
X004994Y012617D01*
X004932Y012640D01*
X004853Y012809D01*
X004752Y012813D02*
X004701Y012480D01*
X004620Y012443D02*
X004451Y012364D01*
X004370Y012326D02*
X004200Y012247D01*
X004119Y012209D02*
X004001Y012463D01*
X004060Y012336D02*
X003891Y012257D01*
X003832Y012384D02*
X003950Y012130D01*
X003674Y012076D02*
X003542Y011944D01*
X003608Y012010D02*
X003410Y012208D01*
X003542Y012208D01*
X003380Y011980D02*
X003248Y011848D01*
X003251Y011719D02*
X002986Y011719D01*
X003118Y011587D01*
X003184Y011587D01*
X003251Y011653D01*
X003251Y011719D01*
X003118Y011851D01*
X003052Y011851D01*
X002986Y011785D01*
X002986Y011719D01*
X002890Y011689D02*
X002956Y011358D01*
X002860Y011328D02*
X002860Y011262D01*
X002794Y011196D01*
X002728Y011196D01*
X002596Y011328D01*
X002860Y011328D01*
X002728Y011460D01*
X002662Y011460D01*
X002596Y011394D01*
X002596Y011328D01*
X002532Y011265D02*
X002466Y011265D01*
X002400Y011199D01*
X002400Y011133D01*
X002532Y011001D01*
X002599Y011001D01*
X002665Y011067D01*
X002665Y011133D01*
X002565Y011166D02*
X002565Y011232D01*
X002532Y011265D01*
X002565Y011166D02*
X002466Y011067D01*
X002403Y011003D02*
X002271Y010871D01*
X002172Y010970D02*
X002370Y010772D01*
X002502Y010904D02*
X002304Y011103D01*
X002179Y011243D02*
X002023Y011399D01*
X002101Y011321D02*
X002205Y011425D01*
X002283Y011452D02*
X002283Y011503D01*
X002335Y011555D01*
X002335Y011607D01*
X002309Y011633D01*
X002257Y011633D01*
X002205Y011581D01*
X002205Y011529D01*
X002231Y011503D01*
X002283Y011503D01*
X002283Y011452D02*
X002309Y011426D01*
X002361Y011426D01*
X002413Y011478D01*
X002413Y011529D01*
X002387Y011555D01*
X002335Y011555D01*
X002465Y011582D02*
X002362Y011686D01*
X002569Y011686D01*
X002569Y011634D01*
X002517Y011582D01*
X002465Y011582D01*
X002362Y011686D02*
X002362Y011738D01*
X002414Y011789D01*
X002465Y011789D01*
X002569Y011686D01*
X002648Y011712D02*
X002596Y011972D01*
X002674Y011998D02*
X002674Y012050D01*
X002726Y012102D01*
X002778Y012102D01*
X002882Y011998D01*
X002674Y011998D01*
X002778Y011894D01*
X002830Y011894D01*
X002882Y011946D01*
X002882Y011998D01*
X002882Y012103D02*
X002986Y012206D01*
X003116Y012181D02*
X003220Y012285D01*
X003168Y012233D02*
X003013Y012389D01*
X003116Y012389D01*
X002751Y011816D02*
X002492Y011868D01*
X002758Y011556D02*
X003088Y011490D01*
X002283Y011347D02*
X002127Y011503D01*
X001893Y010614D02*
X001769Y010569D01*
X002023Y010450D01*
X002062Y010535D02*
X001983Y010365D01*
X001819Y010344D02*
X001740Y010174D01*
X001787Y010054D02*
X001538Y009963D01*
X001708Y009885D01*
X001770Y009907D01*
X001809Y009992D01*
X001787Y010054D01*
X001617Y010133D01*
X001555Y010110D01*
X001516Y010026D01*
X001538Y009963D01*
X001458Y009902D02*
X001633Y009614D01*
X001553Y009553D02*
X001305Y009463D01*
X001474Y009384D01*
X001536Y009406D01*
X001576Y009491D01*
X001553Y009553D01*
X001384Y009632D01*
X001322Y009609D01*
X001282Y009525D01*
X001305Y009463D01*
X001225Y009401D02*
X001146Y009232D01*
X001108Y009151D02*
X001362Y009033D01*
X001235Y009092D02*
X001156Y008923D01*
X001029Y008982D02*
X001283Y008863D01*
X001312Y009258D02*
X001352Y009342D01*
X001479Y009283D02*
X001225Y009401D01*
X001063Y009509D02*
X001001Y009376D01*
X000969Y009309D02*
X000770Y009402D01*
X000801Y009469D02*
X000863Y009602D01*
X001063Y009509D01*
X001061Y009592D02*
X001110Y009610D01*
X001141Y009676D01*
X001123Y009725D01*
X000928Y009654D01*
X001061Y009592D01*
X000963Y009556D02*
X000932Y009489D01*
X000869Y009356D02*
X000807Y009222D01*
X000708Y009269D02*
X000907Y009176D01*
X000928Y009654D02*
X000910Y009703D01*
X000941Y009769D01*
X000990Y009787D01*
X001123Y009725D01*
X001187Y009777D02*
X001050Y010003D01*
X001115Y010055D02*
X001310Y010126D01*
X001327Y010077D01*
X001296Y010010D01*
X001248Y009993D01*
X001115Y010055D01*
X001097Y010103D01*
X001128Y010170D01*
X001177Y010188D01*
X001310Y010126D01*
X001274Y010224D02*
X001336Y010357D01*
X001468Y010378D02*
X001530Y010511D01*
X001499Y010444D02*
X001299Y010537D01*
X001397Y010573D01*
X001249Y009910D02*
X000988Y009870D01*
X001379Y009733D02*
X001712Y009784D01*
X000997Y008046D02*
X000717Y008046D01*
X000857Y008046D02*
X000857Y007859D01*
X000951Y007769D02*
X000764Y007583D01*
X000717Y007583D01*
X000764Y007493D02*
X000717Y007446D01*
X000717Y007353D01*
X000764Y007306D01*
X000951Y007493D01*
X000764Y007493D01*
X000951Y007493D02*
X000997Y007446D01*
X000997Y007353D01*
X000951Y007306D01*
X000764Y007306D01*
X000717Y007217D02*
X000997Y007030D01*
X000951Y006941D02*
X000764Y006754D01*
X000717Y006801D01*
X000717Y006894D01*
X000764Y006941D01*
X000951Y006941D01*
X000997Y006894D01*
X000997Y006801D01*
X000951Y006754D01*
X000764Y006754D01*
X000857Y006664D02*
X000857Y006478D01*
X000717Y006388D02*
X000717Y006201D01*
X000717Y006295D02*
X000997Y006295D01*
X000904Y006201D01*
X000567Y006424D02*
X000347Y006424D01*
X000347Y006351D02*
X000347Y006498D01*
X000457Y006572D02*
X000457Y006719D01*
X000384Y006793D02*
X000530Y006793D01*
X000567Y006830D01*
X000567Y006903D01*
X000530Y006940D01*
X000384Y006793D01*
X000347Y006830D01*
X000347Y006903D01*
X000384Y006940D01*
X000530Y006940D01*
X000567Y007014D02*
X000347Y007161D01*
X000384Y007235D02*
X000530Y007382D01*
X000384Y007382D01*
X000347Y007345D01*
X000347Y007272D01*
X000384Y007235D01*
X000530Y007235D01*
X000567Y007272D01*
X000567Y007345D01*
X000530Y007382D01*
X000457Y007456D02*
X000384Y007456D01*
X000347Y007493D01*
X000347Y007566D01*
X000384Y007603D01*
X000420Y007603D01*
X000457Y007566D01*
X000457Y007456D01*
X000530Y007529D01*
X000567Y007603D01*
X000567Y007677D02*
X000347Y007677D01*
X000457Y007677D02*
X000457Y007824D01*
X000567Y007824D02*
X000347Y007824D01*
X000717Y007859D02*
X000997Y007859D01*
X000997Y007769D02*
X000951Y007769D01*
X000997Y007769D02*
X000997Y007583D01*
X000997Y007217D02*
X000717Y007030D01*
X000567Y007161D02*
X000347Y007014D01*
X000567Y006424D02*
X000494Y006351D01*
X004285Y012286D02*
X004167Y012540D01*
X004291Y012495D01*
X004417Y012657D02*
X004535Y012403D01*
X004541Y012612D02*
X004417Y012657D01*
X004583Y012734D02*
X004870Y012559D01*
X004632Y012959D02*
X004406Y013096D01*
X004369Y012998D02*
X004272Y013034D01*
X004365Y012834D01*
X004432Y012865D02*
X004298Y012803D01*
X004216Y012805D02*
X004021Y012876D01*
X004083Y012743D01*
X004131Y012725D01*
X004198Y012756D01*
X004216Y012805D01*
X004154Y012938D01*
X004105Y012956D01*
X004038Y012925D01*
X004021Y012876D01*
X003938Y012878D02*
X004031Y012678D01*
X003984Y012778D02*
X003851Y012716D01*
X003805Y012816D02*
X003898Y012616D01*
X004499Y012896D02*
X004539Y013158D01*
X004621Y013156D02*
X004684Y013023D01*
X004732Y013005D01*
X004799Y013036D01*
X004817Y013085D01*
X004621Y013156D01*
X004639Y013205D01*
X004706Y013236D01*
X004755Y013218D01*
X004817Y013085D01*
X004853Y013183D02*
X004986Y013245D01*
X005100Y013177D02*
X005233Y013239D01*
X005166Y013208D02*
X005073Y013407D01*
X005171Y013372D01*
X012978Y006231D02*
X013258Y006226D01*
D11*
X012602Y006162D02*
X012442Y006162D01*
X012522Y006082D02*
X012522Y006242D01*
X012202Y006501D02*
X011882Y006501D01*
X011675Y005785D02*
X011975Y005676D01*
X011156Y006292D02*
X011156Y006792D01*
X010906Y007042D01*
X011156Y007292D01*
X011156Y007792D01*
X010906Y008042D01*
X010406Y008042D01*
X010156Y007792D01*
X010156Y007292D01*
X010406Y007042D01*
X010156Y006792D01*
X010156Y006292D01*
X010406Y006042D01*
X010906Y006042D01*
X011156Y006292D01*
X011882Y007582D02*
X012202Y007582D01*
X012427Y008036D02*
X012373Y008186D01*
X012475Y008139D02*
X012325Y008084D01*
X011983Y008321D02*
X011682Y008212D01*
X011313Y009227D02*
X011614Y009336D01*
X011571Y010203D02*
X011454Y010312D01*
X011567Y010316D02*
X011458Y010199D01*
X011046Y010255D02*
X010828Y010021D01*
X010037Y010758D02*
X010256Y010992D01*
X009930Y011572D02*
X009997Y011717D01*
X009891Y011678D02*
X010036Y011610D01*
X009520Y011498D02*
X009385Y011208D01*
X008406Y011664D02*
X008541Y011954D01*
X007958Y012514D02*
X007798Y012514D01*
X007878Y012594D02*
X007878Y012434D01*
X007539Y012194D02*
X007539Y011874D01*
X006458Y011874D02*
X006458Y012194D01*
X005670Y012398D02*
X005525Y012331D01*
X005563Y012437D02*
X005631Y012292D01*
X005424Y011931D02*
X005560Y011641D01*
X004580Y011184D02*
X004445Y011474D01*
X003881Y011467D02*
X003768Y011580D01*
X003881Y011580D02*
X003768Y011467D01*
X003811Y011057D02*
X004037Y010830D01*
X003273Y010066D02*
X003047Y010292D01*
X002453Y010024D02*
X002308Y010092D01*
X002414Y010130D02*
X002346Y009985D01*
X002527Y009615D02*
X002817Y009480D01*
X002360Y008500D02*
X002070Y008635D01*
X001483Y008006D02*
X001483Y007846D01*
X001403Y007926D02*
X001563Y007926D01*
X001803Y007586D02*
X002123Y007586D01*
X002959Y007784D02*
X002959Y007284D01*
X003209Y007034D01*
X002959Y006784D01*
X002959Y006284D01*
X003209Y006034D01*
X003709Y006034D01*
X003959Y006284D01*
X003959Y006784D01*
X003709Y007034D01*
X003959Y007284D01*
X003959Y007784D01*
X003709Y008034D01*
X003209Y008034D01*
X002959Y007784D01*
X002123Y006505D02*
X001803Y006505D01*
X001555Y005750D02*
X001408Y005685D01*
X001449Y005790D02*
X001514Y005644D01*
X001912Y005537D02*
X002204Y005667D01*
X002644Y004680D02*
X002352Y004550D01*
X002464Y003818D02*
X002578Y003705D01*
X002578Y003818D02*
X002464Y003705D01*
X002987Y003748D02*
X003214Y003974D01*
X003978Y003210D02*
X003752Y002984D01*
X003926Y002410D02*
X004071Y002342D01*
X003964Y002304D02*
X004032Y002449D01*
X004441Y002523D02*
X004576Y002813D01*
X005556Y002356D02*
X005420Y002066D01*
X008524Y001685D02*
X008669Y001753D01*
X008630Y001647D02*
X008563Y001792D01*
X008769Y002153D02*
X008634Y002443D01*
X009613Y002899D02*
X009749Y002609D01*
X010413Y002683D02*
X010524Y002798D01*
X010526Y002685D02*
X010411Y002796D01*
X010474Y003207D02*
X010244Y003430D01*
X010995Y004207D02*
X011225Y003985D01*
X011715Y004259D02*
X011865Y004204D01*
X011763Y004157D02*
X011818Y004307D01*
X011606Y004660D02*
X011305Y004770D01*
D12*
X009876Y006625D02*
X009801Y006625D01*
X009725Y006700D01*
X009725Y006850D01*
X009650Y006925D01*
X009575Y006925D01*
X009500Y006850D01*
X009500Y006700D01*
X009575Y006625D01*
X009876Y006625D02*
X009951Y006700D01*
X009951Y006850D01*
X009876Y006925D01*
X009876Y007085D02*
X009801Y007085D01*
X009725Y007160D01*
X009725Y007310D01*
X009650Y007385D01*
X009575Y007385D01*
X009500Y007310D01*
X009500Y007160D01*
X009575Y007085D01*
X009876Y007085D02*
X009951Y007160D01*
X009951Y007310D01*
X009876Y007385D01*
X004580Y007290D02*
X004430Y007140D01*
X004130Y007140D01*
X004205Y006980D02*
X004130Y006905D01*
X004130Y006755D01*
X004205Y006680D01*
X004355Y006680D02*
X004355Y006830D01*
X004355Y006680D02*
X004505Y006680D01*
X004580Y006755D01*
X004580Y006905D01*
X004505Y006980D01*
X004205Y006980D01*
X004580Y007290D02*
X004430Y007440D01*
X004130Y007440D01*
M02*
