G75*
%MOIN*%
%OFA0B0*%
%FSLAX24Y24*%
%IPPOS*%
%LPD*%
%AMOC8*
5,1,8,0,0,1.08239X$1,22.5*
%
%ADD10C,0.0030*%
%ADD11C,0.0020*%
%ADD12C,0.0050*%
%ADD13C,0.0040*%
%ADD14C,0.0080*%
%ADD15C,0.0060*%
%ADD16C,0.0010*%
D10*
X002918Y008239D02*
X002856Y008301D01*
X002918Y008239D02*
X003042Y008239D01*
X003103Y008301D01*
X003103Y008363D01*
X003042Y008425D01*
X002980Y008425D01*
X003042Y008425D02*
X003103Y008486D01*
X003103Y008548D01*
X003042Y008610D01*
X002918Y008610D01*
X002856Y008548D01*
X003225Y008301D02*
X003225Y008239D01*
X003286Y008239D01*
X003286Y008301D01*
X003225Y008301D01*
X003409Y008301D02*
X003471Y008239D01*
X003594Y008239D01*
X003656Y008301D01*
X003656Y008363D01*
X003594Y008425D01*
X003532Y008425D01*
X003594Y008425D02*
X003656Y008486D01*
X003656Y008548D01*
X003594Y008610D01*
X003471Y008610D01*
X003409Y008548D01*
X010195Y005818D02*
X010195Y005756D01*
X010256Y005695D01*
X010380Y005695D01*
X010441Y005633D01*
X010441Y005571D01*
X010380Y005509D01*
X010256Y005509D01*
X010195Y005571D01*
X010195Y005818D02*
X010256Y005880D01*
X010380Y005880D01*
X010441Y005818D01*
X010563Y005880D02*
X010748Y005880D01*
X010810Y005818D01*
X010810Y005571D01*
X010748Y005509D01*
X010563Y005509D01*
X010563Y005880D01*
X010931Y005756D02*
X010931Y005509D01*
X010931Y005695D02*
X011178Y005695D01*
X011178Y005756D02*
X011178Y005509D01*
X011178Y005756D02*
X011055Y005880D01*
X010931Y005756D01*
X011417Y007003D02*
X011479Y007003D01*
X011541Y007065D01*
X011541Y007188D01*
X011603Y007250D01*
X011664Y007250D01*
X011726Y007188D01*
X011726Y007065D01*
X011664Y007003D01*
X011417Y007003D02*
X011356Y007065D01*
X011356Y007188D01*
X011417Y007250D01*
X011417Y007371D02*
X011664Y007371D01*
X011726Y007433D01*
X011726Y007556D01*
X011664Y007618D01*
X011726Y007740D02*
X011726Y007986D01*
X011726Y007740D02*
X011356Y007740D01*
X011417Y007618D02*
X011356Y007556D01*
X011356Y007433D01*
X011417Y007371D01*
D11*
X002807Y006768D02*
X002807Y006628D01*
X002527Y006628D01*
X002527Y006768D01*
X002574Y006815D01*
X002761Y006815D01*
X002807Y006768D01*
X002807Y006538D02*
X002527Y006538D01*
X002527Y006352D02*
X002807Y006538D01*
X002807Y006352D02*
X002527Y006352D01*
X002574Y006262D02*
X002527Y006215D01*
X002527Y006122D01*
X002574Y006075D01*
X002761Y006075D01*
X002807Y006122D01*
X002807Y006215D01*
X002761Y006262D01*
X002667Y006262D01*
X002667Y006169D01*
D12*
X001693Y006449D02*
X001693Y006856D01*
X001388Y007056D02*
X001592Y007260D01*
X001388Y007463D01*
X000981Y007463D01*
X001083Y007664D02*
X000981Y007766D01*
X000981Y007969D01*
X001083Y008071D01*
X001185Y008071D01*
X001592Y007664D01*
X001592Y008071D01*
X001693Y008272D02*
X001693Y008679D01*
X001592Y008879D02*
X000981Y008879D01*
X000981Y009185D01*
X001083Y009286D01*
X001286Y009286D01*
X001388Y009185D01*
X001388Y008879D01*
X001388Y009083D02*
X001592Y009286D01*
X001592Y009487D02*
X001185Y009894D01*
X001083Y009894D01*
X000981Y009792D01*
X000981Y009589D01*
X001083Y009487D01*
X001592Y009487D02*
X001592Y009894D01*
X001388Y007056D02*
X000981Y007056D01*
X001083Y006248D02*
X000981Y006146D01*
X000981Y005943D01*
X001083Y005841D01*
X001490Y005841D01*
X001592Y005943D01*
X001592Y006146D01*
X001490Y006248D01*
X001286Y006248D01*
X001286Y006044D01*
X001592Y005640D02*
X000981Y005640D01*
X000981Y005233D02*
X001592Y005640D01*
X001592Y005233D02*
X000981Y005233D01*
X000981Y005032D02*
X000981Y004828D01*
X000981Y004930D02*
X001592Y004930D01*
X001592Y004828D02*
X001592Y005032D01*
X001592Y004627D02*
X001388Y004424D01*
X001388Y004526D02*
X001388Y004220D01*
X001592Y004220D02*
X000981Y004220D01*
X000981Y004526D01*
X001083Y004627D01*
X001286Y004627D01*
X001388Y004526D01*
D13*
X006514Y009259D02*
X006514Y009566D01*
X006514Y009719D02*
X006974Y009719D01*
X006974Y010026D01*
X006898Y010179D02*
X006974Y010256D01*
X006974Y010410D01*
X006898Y010486D01*
X006898Y010640D02*
X006974Y010716D01*
X006974Y010870D01*
X006898Y010947D01*
X006744Y010947D01*
X006668Y010870D01*
X006668Y010793D01*
X006744Y010640D01*
X006514Y010640D01*
X006514Y010947D01*
X006591Y011100D02*
X006514Y011177D01*
X006514Y011330D01*
X006591Y011407D01*
X006898Y011407D01*
X006974Y011330D01*
X006974Y011177D01*
X006898Y011100D01*
X006744Y011177D02*
X006744Y011407D01*
X006668Y011561D02*
X006514Y011714D01*
X006974Y011714D01*
X006974Y011561D02*
X006974Y011867D01*
X006974Y012021D02*
X006974Y012328D01*
X006974Y012174D02*
X006514Y012174D01*
X006668Y012021D01*
X006744Y012481D02*
X006744Y012712D01*
X006821Y012788D01*
X006898Y012788D01*
X006974Y012712D01*
X006974Y012558D01*
X006898Y012481D01*
X006744Y012481D01*
X006591Y012635D01*
X006514Y012788D01*
X006744Y011177D02*
X006668Y011100D01*
X006591Y011100D01*
X006591Y010486D02*
X006514Y010410D01*
X006514Y010256D01*
X006591Y010179D01*
X006898Y010179D01*
X006974Y009412D02*
X006514Y009412D01*
X006951Y004713D02*
X007028Y004560D01*
X007181Y004406D01*
X007181Y004637D01*
X007258Y004713D01*
X007335Y004713D01*
X007411Y004637D01*
X007411Y004483D01*
X007335Y004406D01*
X007181Y004406D01*
X007411Y004253D02*
X007411Y003946D01*
X007411Y003793D02*
X007411Y003486D01*
X007335Y003332D02*
X007028Y003332D01*
X006951Y003255D01*
X006951Y003102D01*
X007028Y003025D01*
X007105Y003025D01*
X007181Y003102D01*
X007181Y003332D01*
X007335Y003332D02*
X007411Y003255D01*
X007411Y003102D01*
X007335Y003025D01*
X007335Y002872D02*
X007181Y002872D01*
X007105Y002795D01*
X007105Y002718D01*
X007181Y002565D01*
X006951Y002565D01*
X006951Y002872D01*
X007335Y002872D02*
X007411Y002795D01*
X007411Y002642D01*
X007335Y002565D01*
X007335Y002411D02*
X007411Y002335D01*
X007411Y002181D01*
X007335Y002104D01*
X007028Y002104D01*
X006951Y002181D01*
X006951Y002335D01*
X007028Y002411D01*
X007411Y001951D02*
X007411Y001644D01*
X006951Y001644D01*
X006951Y001491D02*
X006951Y001184D01*
X006951Y001337D02*
X007411Y001337D01*
X007105Y003486D02*
X006951Y003639D01*
X007411Y003639D01*
X007105Y003946D02*
X006951Y004100D01*
X007411Y004100D01*
X012778Y004795D02*
X013038Y005142D01*
X013298Y004795D01*
X013298Y005311D02*
X013038Y005657D01*
X012778Y005311D01*
X012778Y005826D02*
X013038Y006173D01*
X013298Y005826D01*
X012778Y006342D02*
X012778Y006689D01*
X012778Y006515D02*
X013298Y006515D01*
X012865Y006857D02*
X013038Y007031D01*
X013298Y007031D01*
X013038Y007031D02*
X012865Y007204D01*
X012778Y007204D01*
X012778Y007373D02*
X013298Y007373D01*
X013298Y007720D01*
X013298Y007889D02*
X013298Y008236D01*
X013298Y008404D02*
X012778Y008404D01*
X012778Y008665D01*
X012865Y008751D01*
X013038Y008751D01*
X013125Y008665D01*
X013125Y008404D01*
X013125Y008578D02*
X013298Y008751D01*
X012778Y008236D02*
X012778Y007889D01*
X013298Y007889D01*
X013038Y007889D02*
X013038Y008062D01*
X012865Y006857D02*
X012778Y006857D01*
D14*
X007431Y005347D02*
X006431Y005347D01*
X006589Y005059D02*
X006591Y005079D01*
X006597Y005098D01*
X006606Y005116D01*
X006618Y005132D01*
X006634Y005145D01*
X006651Y005155D01*
X006670Y005162D01*
X006690Y005165D01*
X006710Y005164D01*
X006730Y005159D01*
X006748Y005151D01*
X006764Y005139D01*
X006778Y005125D01*
X006789Y005108D01*
X006797Y005089D01*
X006801Y005069D01*
X006801Y005049D01*
X006797Y005029D01*
X006789Y005010D01*
X006778Y004993D01*
X006764Y004979D01*
X006748Y004967D01*
X006730Y004959D01*
X006710Y004954D01*
X006690Y004953D01*
X006670Y004956D01*
X006651Y004963D01*
X006634Y004973D01*
X006618Y004986D01*
X006606Y005002D01*
X006597Y005020D01*
X006591Y005039D01*
X006589Y005059D01*
X006494Y008739D02*
X007494Y008739D01*
X007125Y009026D02*
X007127Y009046D01*
X007133Y009065D01*
X007142Y009083D01*
X007154Y009099D01*
X007170Y009112D01*
X007187Y009122D01*
X007206Y009129D01*
X007226Y009132D01*
X007246Y009131D01*
X007266Y009126D01*
X007284Y009118D01*
X007300Y009106D01*
X007314Y009092D01*
X007325Y009075D01*
X007333Y009056D01*
X007337Y009036D01*
X007337Y009016D01*
X007333Y008996D01*
X007325Y008977D01*
X007314Y008960D01*
X007300Y008946D01*
X007284Y008934D01*
X007266Y008926D01*
X007246Y008921D01*
X007226Y008920D01*
X007206Y008923D01*
X007187Y008930D01*
X007170Y008940D01*
X007154Y008953D01*
X007142Y008969D01*
X007133Y008987D01*
X007127Y009006D01*
X007125Y009026D01*
X007494Y012739D02*
X006494Y012739D01*
X006431Y001347D02*
X007431Y001347D01*
D15*
X002554Y004059D02*
X002317Y004059D01*
X002317Y004531D02*
X002554Y004531D01*
X002561Y004951D02*
X002325Y004951D01*
X002325Y005424D02*
X002561Y005424D01*
X005038Y005676D02*
X005038Y005912D01*
X005510Y005912D02*
X005510Y005676D01*
X005243Y008203D02*
X005243Y008439D01*
X004770Y008439D02*
X004770Y008203D01*
X008487Y004778D02*
X008487Y004542D01*
X008959Y004542D02*
X008959Y004778D01*
X010790Y008526D02*
X011026Y008526D01*
X011026Y008998D02*
X010790Y008998D01*
X010790Y009451D02*
X011026Y009451D01*
X011026Y009924D02*
X010790Y009924D01*
X009042Y009609D02*
X009042Y009372D01*
X008569Y009372D02*
X008569Y009609D01*
D16*
X009161Y009621D02*
X009311Y009621D01*
X009286Y009574D02*
X009186Y009574D01*
X009161Y009549D01*
X009161Y009499D01*
X009186Y009474D01*
X009286Y009474D01*
X009311Y009499D01*
X009311Y009549D01*
X009286Y009574D01*
X009236Y009621D02*
X009211Y009646D01*
X009211Y009696D01*
X009236Y009721D01*
X009311Y009721D01*
X009311Y009768D02*
X009211Y009768D01*
X009211Y009793D01*
X009236Y009818D01*
X009211Y009843D01*
X009236Y009868D01*
X009311Y009868D01*
X009311Y009818D02*
X009236Y009818D01*
X009211Y009279D02*
X009261Y009204D01*
X009311Y009279D01*
X009311Y009204D02*
X009161Y009204D01*
X009161Y009106D02*
X009311Y009106D01*
X009311Y009056D02*
X009311Y009156D01*
X009211Y009056D02*
X009161Y009106D01*
X008950Y008830D02*
X008950Y008680D01*
X008900Y008680D02*
X009000Y008680D01*
X008900Y008780D02*
X008950Y008830D01*
X008853Y008805D02*
X008853Y008755D01*
X008828Y008730D01*
X008753Y008730D01*
X008803Y008730D02*
X008853Y008680D01*
X008753Y008680D02*
X008753Y008830D01*
X008828Y008830D01*
X008853Y008805D01*
X008706Y008805D02*
X008681Y008830D01*
X008631Y008830D01*
X008606Y008805D01*
X008706Y008805D02*
X008706Y008780D01*
X008606Y008680D01*
X008706Y008680D01*
X010613Y009155D02*
X010713Y009255D01*
X010713Y009280D01*
X010688Y009305D01*
X010638Y009305D01*
X010613Y009280D01*
X010613Y009155D02*
X010713Y009155D01*
X010760Y009180D02*
X010785Y009155D01*
X010835Y009155D01*
X010860Y009180D01*
X010908Y009155D02*
X010908Y009305D01*
X010860Y009280D02*
X010835Y009305D01*
X010785Y009305D01*
X010760Y009280D01*
X010760Y009180D01*
X010908Y009230D02*
X011008Y009230D01*
X011055Y009255D02*
X011105Y009305D01*
X011105Y009155D01*
X011055Y009155D02*
X011155Y009155D01*
X011008Y009155D02*
X011008Y009305D01*
X011008Y010096D02*
X011008Y010246D01*
X011055Y010221D02*
X011080Y010246D01*
X011130Y010246D01*
X011155Y010221D01*
X011155Y010196D01*
X011055Y010096D01*
X011155Y010096D01*
X011008Y010171D02*
X010908Y010171D01*
X010860Y010121D02*
X010835Y010096D01*
X010785Y010096D01*
X010760Y010121D01*
X010760Y010221D01*
X010785Y010246D01*
X010835Y010246D01*
X010860Y010221D01*
X010908Y010246D02*
X010908Y010096D01*
X010713Y010096D02*
X010613Y010096D01*
X010713Y010196D01*
X010713Y010221D01*
X010688Y010246D01*
X010638Y010246D01*
X010613Y010221D01*
X008826Y005480D02*
X008776Y005480D01*
X008751Y005455D01*
X008703Y005455D02*
X008703Y005405D01*
X008678Y005379D01*
X008603Y005379D01*
X008603Y005329D02*
X008603Y005480D01*
X008678Y005480D01*
X008703Y005455D01*
X008653Y005379D02*
X008703Y005329D01*
X008751Y005329D02*
X008851Y005430D01*
X008851Y005455D01*
X008826Y005480D01*
X008851Y005329D02*
X008751Y005329D01*
X008556Y005329D02*
X008456Y005329D01*
X008506Y005329D02*
X008506Y005480D01*
X008456Y005430D01*
X008464Y004032D02*
X008464Y003882D01*
X008414Y003882D02*
X008514Y003882D01*
X008561Y003882D02*
X008561Y004032D01*
X008636Y003982D02*
X008561Y003932D01*
X008636Y003882D01*
X008464Y004032D02*
X008414Y003982D01*
X008832Y004007D02*
X008832Y003907D01*
X008857Y003882D01*
X008907Y003882D01*
X008932Y003907D01*
X008932Y004007D01*
X008907Y004032D01*
X008857Y004032D01*
X008832Y004007D01*
X008979Y004032D02*
X008979Y003882D01*
X008979Y003957D02*
X009004Y003982D01*
X009054Y003982D01*
X009079Y003957D01*
X009079Y003882D01*
X009126Y003882D02*
X009126Y003982D01*
X009151Y003982D01*
X009176Y003957D01*
X009201Y003982D01*
X009226Y003957D01*
X009226Y003882D01*
X009176Y003882D02*
X009176Y003957D01*
X005799Y005182D02*
X005799Y005282D01*
X005799Y005329D02*
X005649Y005329D01*
X005699Y005405D02*
X005749Y005329D01*
X005799Y005405D01*
X005799Y005232D02*
X005649Y005232D01*
X005699Y005182D01*
X005674Y005600D02*
X005774Y005600D01*
X005799Y005625D01*
X005799Y005675D01*
X005774Y005700D01*
X005674Y005700D01*
X005649Y005675D01*
X005649Y005625D01*
X005674Y005600D01*
X005649Y005747D02*
X005799Y005747D01*
X005724Y005747D02*
X005699Y005772D01*
X005699Y005822D01*
X005724Y005847D01*
X005799Y005847D01*
X005799Y005894D02*
X005699Y005894D01*
X005699Y005919D01*
X005724Y005944D01*
X005699Y005969D01*
X005724Y005994D01*
X005799Y005994D01*
X005799Y005944D02*
X005724Y005944D01*
X004850Y005893D02*
X004850Y005793D01*
X004850Y005746D02*
X004799Y005696D01*
X004799Y005721D02*
X004799Y005646D01*
X004850Y005646D02*
X004699Y005646D01*
X004699Y005721D01*
X004724Y005746D01*
X004774Y005746D01*
X004799Y005721D01*
X004749Y005793D02*
X004699Y005843D01*
X004850Y005843D01*
X004850Y005599D02*
X004850Y005499D01*
X004850Y005549D02*
X004699Y005549D01*
X004749Y005499D01*
X004735Y007473D02*
X004635Y007473D01*
X004685Y007473D02*
X004685Y007623D01*
X004635Y007573D01*
X004782Y007523D02*
X004857Y007573D01*
X004782Y007523D02*
X004857Y007473D01*
X004782Y007473D02*
X004782Y007623D01*
X005052Y007598D02*
X005052Y007498D01*
X005077Y007473D01*
X005127Y007473D01*
X005152Y007498D01*
X005152Y007598D01*
X005127Y007623D01*
X005077Y007623D01*
X005052Y007598D01*
X005200Y007623D02*
X005200Y007473D01*
X005200Y007548D02*
X005225Y007573D01*
X005275Y007573D01*
X005300Y007548D01*
X005300Y007473D01*
X005347Y007473D02*
X005347Y007573D01*
X005372Y007573D01*
X005397Y007548D01*
X005422Y007573D01*
X005447Y007548D01*
X005447Y007473D01*
X005397Y007473D02*
X005397Y007548D01*
X005154Y009026D02*
X005054Y009026D01*
X005154Y009126D01*
X005154Y009151D01*
X005129Y009176D01*
X005079Y009176D01*
X005054Y009151D01*
X005006Y009151D02*
X005006Y009101D01*
X004981Y009076D01*
X004906Y009076D01*
X004906Y009026D02*
X004906Y009176D01*
X004981Y009176D01*
X005006Y009151D01*
X004956Y009076D02*
X005006Y009026D01*
X004859Y009026D02*
X004759Y009026D01*
X004859Y009126D01*
X004859Y009151D01*
X004834Y009176D01*
X004784Y009176D01*
X004759Y009151D01*
X002665Y005715D02*
X002615Y005715D01*
X002590Y005690D01*
X002543Y005715D02*
X002543Y005565D01*
X002590Y005565D02*
X002690Y005665D01*
X002690Y005690D01*
X002665Y005715D01*
X002543Y005640D02*
X002443Y005640D01*
X002396Y005690D02*
X002371Y005715D01*
X002321Y005715D01*
X002296Y005690D01*
X002296Y005590D01*
X002321Y005565D01*
X002371Y005565D01*
X002396Y005590D01*
X002443Y005565D02*
X002443Y005715D01*
X002590Y005565D02*
X002690Y005565D01*
X002248Y005565D02*
X002148Y005565D01*
X002198Y005565D02*
X002198Y005715D01*
X002148Y005665D01*
X002206Y004814D02*
X002206Y004664D01*
X002156Y004664D02*
X002256Y004664D01*
X002304Y004689D02*
X002329Y004664D01*
X002379Y004664D01*
X002404Y004689D01*
X002451Y004664D02*
X002451Y004814D01*
X002404Y004789D02*
X002379Y004814D01*
X002329Y004814D01*
X002304Y004789D01*
X002304Y004689D01*
X002451Y004739D02*
X002551Y004739D01*
X002598Y004764D02*
X002648Y004814D01*
X002648Y004664D01*
X002598Y004664D02*
X002698Y004664D01*
X002551Y004664D02*
X002551Y004814D01*
X002206Y004814D02*
X002156Y004764D01*
M02*
