G75*
%MOIN*%
%OFA0B0*%
%FSLAX24Y24*%
%IPPOS*%
%LPD*%
%AMOC8*
5,1,8,0,0,1.08239X$1,22.5*
%
%ADD10R,0.0690X0.0178*%
%ADD11R,0.0552X0.0395*%
%ADD12C,0.0820*%
%ADD13R,0.0395X0.0552*%
D10*
X005829Y001674D03*
X005829Y001930D03*
X005829Y002185D03*
X005829Y002441D03*
X005829Y002697D03*
X005829Y002953D03*
X005829Y003209D03*
X005829Y003465D03*
X005829Y003721D03*
X005829Y003977D03*
X005829Y004233D03*
X005829Y004489D03*
X005829Y004744D03*
X005829Y005000D03*
X008034Y005000D03*
X008034Y004744D03*
X008034Y004489D03*
X008034Y004233D03*
X008034Y003977D03*
X008034Y003721D03*
X008034Y003465D03*
X008034Y003209D03*
X008034Y002953D03*
X008034Y002697D03*
X008034Y002441D03*
X008034Y002185D03*
X008034Y001930D03*
X008034Y001674D03*
X008097Y009085D03*
X008097Y009341D03*
X008097Y009597D03*
X008097Y009853D03*
X008097Y010109D03*
X008097Y010365D03*
X008097Y010620D03*
X008097Y010876D03*
X008097Y011132D03*
X008097Y011388D03*
X008097Y011644D03*
X008097Y011900D03*
X008097Y012156D03*
X008097Y012412D03*
X005892Y012412D03*
X005892Y012156D03*
X005892Y011900D03*
X005892Y011644D03*
X005892Y011388D03*
X005892Y011132D03*
X005892Y010876D03*
X005892Y010620D03*
X005892Y010365D03*
X005892Y010109D03*
X005892Y009853D03*
X005892Y009597D03*
X005892Y009341D03*
X005892Y009085D03*
D11*
X005006Y008676D03*
X005006Y007967D03*
X005274Y006148D03*
X005274Y005439D03*
X008723Y005014D03*
X008723Y004306D03*
X008806Y009136D03*
X008806Y009845D03*
D12*
X010656Y007542D03*
X010656Y006542D03*
X003459Y006534D03*
X003459Y007534D03*
D13*
X002081Y004295D03*
X002790Y004295D03*
X002798Y005187D03*
X002089Y005187D03*
X010554Y008762D03*
X011262Y008762D03*
X011262Y009687D03*
X010554Y009687D03*
M02*
