%
M48
M72
T01C0.0236
T02C0.0240
T03C0.0400
%
T01
X3274Y4593
X3546Y5652
X4294Y6183
X4176Y6774
X4451Y5573
X5081Y4865
X5140Y4313
X5219Y3703
X6695Y2187
X7306Y2187
X6574Y1456
X5573Y1262
X7365Y3526
X9274Y2581
X10199Y2601
X9491Y4018
X10160Y4963
X9353Y5140
X9609Y5888
X9235Y6991
X9313Y7581
X9628Y8939
X9609Y9510
X9333Y10337
X8782Y10357
X7404Y10908
X7266Y10376
X6518Y10947
X6546Y9715
X6617Y9038
X4294Y8408
X3073Y9727
X1780Y8112
X930Y8116
X2089Y5928
X3782Y11617
X5534Y12798
X6124Y12896
X7861Y12825
X12030Y6073
X11282Y4451
T02
X10207Y3183
X9302Y4585
X4294Y9498
X10097Y11628
T03
X10656Y7542
X10656Y6542
X3459Y6534
X3459Y7534
M30
